<svg width="46" height="37" viewBox="0 0 46 37" fill="none" xmlns="http://www.w3.org/2000/svg">
<path fill-rule="evenodd" clip-rule="evenodd" d="M19.3579 0C18.7878 0 18.2776 0.210834 17.8875 0.602385C17.4973 0.993937 17.2873 1.47584 17.2873 2.04811V17.9706H17.2573C16.1469 17.0972 14.8865 16.4948 13.536 16.1333C12.1556 15.7719 10.7751 15.6514 9.36467 15.8321C7.95421 16.0129 6.63378 16.4345 5.40337 17.1273C4.17297 17.82 3.09262 18.7236 2.22234 19.8681C1.53211 20.7717 0.991932 21.7656 0.631814 22.8198C0.241686 23.874 0.0316175 24.9583 0.00160768 26.1028C-0.0284022 27.91 0.361724 29.6268 1.17199 31.2532C2.01226 32.8797 3.18265 34.2049 4.68314 35.1989C6.27366 36.253 8.01423 36.8554 9.90485 36.9759C11.7955 37.0964 13.5961 36.7651 15.3066 35.982C16.1169 35.5904 16.8971 35.1085 17.5874 34.5061C18.2776 33.9339 18.9078 33.2712 19.418 32.5484C19.9281 31.8255 20.3783 31.0424 20.7084 30.1991C21.0385 29.3557 21.2786 28.4823 21.3686 27.5787C21.383 27.4921 21.3905 27.4055 21.3977 27.3222C21.4055 27.2317 21.413 27.1451 21.4286 27.0666C21.4286 26.9948 21.4355 26.916 21.4426 26.8337C21.4504 26.7436 21.4586 26.6491 21.4586 26.5546V2.04811C21.4586 1.47584 21.2486 0.993937 20.8584 0.602385C20.4083 0.210834 19.9281 0 19.3579 0ZM17.1672 27.5787C16.9271 28.7232 16.417 29.7774 15.6367 30.681C15.0665 31.3436 14.3463 31.8857 13.506 32.3074C13.4154 32.3415 13.3291 32.3799 13.2438 32.4193C13.2226 32.4283 13.201 32.4378 13.1791 32.4475C12.5245 32.7189 11.8433 32.8831 11.1353 32.9399C10.385 32.97 9.63476 32.9098 8.94453 32.7291C8.2243 32.5182 7.53407 32.2171 6.90387 31.7653C6.27366 31.3135 5.73348 30.7713 5.28334 30.1388C4.83319 29.5364 4.53309 28.8738 4.32302 28.1811C4.14296 27.4582 4.05293 26.7353 4.11295 26.0125C4.14296 25.1691 4.35303 24.386 4.71315 23.6632C5.07327 22.9102 5.52341 22.2777 6.12361 21.7054C6.4237 21.4343 6.72379 21.2235 7.02387 21.0127C7.35398 20.8018 7.68412 20.6211 8.04424 20.4404C8.8545 20.079 9.72479 19.8681 10.6551 19.8681C11.5854 19.8681 12.4557 20.0488 13.296 20.4404C14.1062 20.8018 14.8565 21.3139 15.4867 21.9464C16.1169 22.609 16.597 23.362 16.8971 24.2354C17.3173 25.2896 17.4073 26.4341 17.1672 27.5787Z" fill="#011399"/>
<path fill-rule="evenodd" clip-rule="evenodd" d="M26.6421 0C27.2122 0 27.7224 0.210834 28.1125 0.602385C28.5027 0.993937 28.7127 1.47584 28.7127 2.04811V17.9706H28.7427C29.8531 17.0972 31.1135 16.4948 32.464 16.1333C33.8444 15.7719 35.2249 15.6514 36.6353 15.8321C38.0458 16.0129 39.3662 16.4345 40.5966 17.1273C41.827 17.82 42.9074 18.7236 43.7777 19.8681C44.4679 20.7717 45.0081 21.7656 45.3682 22.8198C45.7583 23.874 45.9684 24.9583 45.9984 26.1028C46.0284 27.91 45.6383 29.6268 44.828 31.2532C43.9877 32.8797 42.8174 34.2049 41.3169 35.1989C39.7263 36.253 37.9858 36.8554 36.0951 36.9759C34.2045 37.0964 32.4039 36.7651 30.6934 35.982C29.8831 35.5904 29.1029 35.1085 28.4126 34.5061C27.7224 33.9339 27.0922 33.2712 26.582 32.5484C26.0719 31.8255 25.6217 31.0424 25.2916 30.1991C24.9615 29.3557 24.7214 28.4823 24.6314 27.5787C24.617 27.4921 24.6095 27.4055 24.6023 27.3222C24.5945 27.2317 24.587 27.1451 24.5714 27.0666C24.5714 26.9948 24.5645 26.916 24.5574 26.8337C24.5496 26.7436 24.5414 26.6491 24.5414 26.5546V2.04811C24.5414 1.47584 24.7514 0.993937 25.1416 0.602385C25.5917 0.210834 26.0719 0 26.6421 0ZM28.8328 27.5787C29.0729 28.7232 29.583 29.7774 30.3633 30.681C30.9335 31.3436 31.6537 31.8857 32.494 32.3074C32.5846 32.3415 32.6709 32.3799 32.7562 32.4193C32.7774 32.4283 32.799 32.4378 32.8209 32.4475C33.4755 32.7189 34.1567 32.8831 34.8647 32.9399C35.615 32.97 36.3652 32.9098 37.0555 32.7291C37.7757 32.5182 38.4659 32.2171 39.0961 31.7653C39.7263 31.3135 40.2665 30.7713 40.7167 30.1388C41.1668 29.5364 41.4669 28.8738 41.677 28.1811C41.857 27.4582 41.9471 26.7353 41.887 26.0125C41.857 25.1691 41.647 24.386 41.2868 23.6632C40.9267 22.9102 40.4766 22.2777 39.8764 21.7054C39.5763 21.4343 39.2762 21.2235 38.9761 21.0127C38.646 20.8018 38.3159 20.6211 37.9558 20.4404C37.1455 20.079 36.2752 19.8681 35.3449 19.8681C34.4146 19.8681 33.5443 20.0488 32.704 20.4404C31.8938 20.8018 31.1435 21.3139 30.5133 21.9464C29.8831 22.609 29.403 23.362 29.1029 24.2354C28.6827 25.2896 28.5927 26.4341 28.8328 27.5787Z" fill="#011399"/>
</svg>
